<?xml version="1.0" standalone="no"?>
<!DOCTYPE svg PUBLIC "-//W3C//DTD SVG 20010904//EN"
 "http://www.w3.org/TR/2001/REC-SVG-20010904/DTD/svg10.dtd">
<svg version="1.0" xmlns="http://www.w3.org/2000/svg"
 width="1024.000000pt" height="1024.000000pt" viewBox="0 0 1024.000000 1024.000000"
 preserveAspectRatio="xMidYMid meet">

<g transform="translate(0.000000,1024.000000) scale(0.100000,-0.100000)"
fill="#000000" stroke="none">
<path d="M4930 8125 c-25 -8 -72 -31 -105 -51 -56 -34 -207 -124 -335 -199
-30 -17 -77 -46 -105 -62 -62 -37 -236 -140 -370 -218 -55 -32 -185 -108 -290
-170 -104 -61 -246 -145 -315 -185 -248 -146 -827 -494 -917 -552 -53 -34
-101 -73 -112 -92 -20 -32 -20 -51 -22 -1744 l-1 -1711 23 -43 c27 -47 64 -76
206 -163 54 -32 163 -100 243 -150 293 -185 623 -391 678 -424 32 -19 107 -66
167 -104 61 -39 157 -100 213 -136 57 -36 150 -96 205 -132 56 -36 125 -78
152 -94 45 -26 233 -147 495 -321 126 -84 161 -97 231 -92 45 3 73 13 132 49
85 50 372 232 675 428 298 193 471 302 782 494 151 93 383 238 515 322 132 83
266 167 298 186 73 42 122 96 136 146 8 26 11 570 11 1737 l0 1700 -21 43
c-11 24 -38 58 -59 75 -41 35 -249 170 -420 272 -58 34 -166 100 -240 146 -74
45 -207 126 -295 178 -193 115 -393 236 -745 452 -752 462 -718 444 -810 415z
m310 -503 c74 -47 158 -98 185 -115 99 -61 172 -106 296 -183 128 -81 394
-244 619 -381 69 -42 233 -144 365 -226 132 -83 280 -175 329 -206 49 -30 107
-72 128 -92 l39 -37 -3 -1548 c-2 -852 -7 -1556 -11 -1565 -9 -17 -191 -138
-432 -286 -77 -47 -187 -116 -245 -153 -58 -37 -199 -127 -315 -200 -115 -73
-266 -168 -335 -212 -69 -44 -188 -120 -265 -169 -77 -48 -160 -102 -185 -119
-25 -17 -111 -73 -193 -123 -81 -51 -168 -109 -193 -129 l-46 -37 -37 19 c-20
11 -94 57 -166 104 -71 46 -186 119 -255 162 -69 42 -224 141 -345 219 -121
78 -258 165 -305 194 -47 29 -132 82 -190 118 -139 88 -272 170 -520 321 -113
69 -264 162 -337 206 l-132 81 -1 1571 0 1571 143 83 c78 47 176 105 217 131
41 25 131 79 200 119 69 40 190 112 270 160 80 48 240 142 355 210 350 205
742 439 891 532 78 48 161 97 185 107 l44 20 55 -31 c30 -17 116 -69 190 -116z"/>
<path d="M4675 7302 c-666 -341 -649 -331 -663 -371 -7 -20 -44 -146 -83 -281
-68 -240 -106 -368 -188 -640 -36 -121 -143 -393 -276 -705 -81 -190 -79 -183
-49 -214 15 -14 47 -53 73 -86 215 -280 427 -521 615 -701 146 -141 262 -239
636 -539 157 -126 288 -233 292 -238 9 -14 81 43 245 190 72 65 191 172 265
238 294 264 730 715 918 950 35 44 80 97 99 118 l36 38 -17 42 c-8 23 -38 103
-66 177 -27 74 -85 223 -127 330 -108 272 -174 476 -244 750 -33 129 -73 287
-90 350 -17 63 -31 129 -31 147 0 17 -7 38 -15 47 -8 8 -77 47 -153 87 -75 40
-174 94 -218 120 -45 26 -155 86 -245 134 -90 48 -210 114 -266 146 -59 34
-114 59 -130 59 -16 0 -152 -64 -318 -148z m566 -238 c129 -70 297 -163 374
-207 77 -44 150 -85 162 -91 25 -12 31 -34 108 -346 25 -102 57 -225 71 -275
28 -102 32 -172 11 -231 l-14 -41 79 -159 c43 -88 98 -208 122 -269 25 -60 58
-140 75 -177 32 -71 81 -219 81 -244 0 -26 -18 -15 -112 72 -188 174 -368 302
-558 396 -105 53 -282 103 -451 129 -246 37 -495 19 -712 -52 -238 -78 -418
-195 -661 -430 -55 -54 -105 -99 -109 -99 -21 0 -15 38 23 147 65 184 91 243
201 468 78 160 102 218 101 245 -10 161 -6 191 57 440 34 135 78 293 99 353
l37 107 385 194 c212 107 388 195 391 195 3 1 111 -56 240 -125z m-580 -2655
c47 -35 130 -93 183 -129 53 -36 117 -79 141 -97 l44 -32 83 55 c74 50 125 90
298 233 44 37 35 25 -40 -55 -98 -103 -211 -263 -304 -431 -28 -51 -56 -93
-61 -93 -6 0 -34 48 -64 108 -83 166 -186 314 -297 427 -55 55 -92 95 -84 88
8 -6 54 -39 101 -74z"/>
<path d="M4972 6040 c4 -20 34 -33 188 -80 170 -53 385 -133 470 -175 66 -33
213 -137 239 -169 8 -9 33 -31 55 -49 l41 -32 -44 54 c-73 87 -234 214 -371
293 -73 41 -249 114 -335 139 -104 29 -247 41 -243 19z"/>
<path d="M4647 5989 c-88 -12 -289 -62 -370 -93 -84 -33 -62 -32 74 3 92 24
315 70 459 94 48 8 -96 4 -163 -4z"/>
<path d="M6620 6323 l0 -279 95 -97 95 -97 0 -380 0 -380 90 0 90 0 0 370 0
370 55 36 55 37 0 213 0 212 -35 12 c-19 6 -44 25 -56 41 -11 16 -29 34 -39
39 -16 9 -20 4 -34 -38 -9 -26 -25 -103 -37 -172 -11 -69 -22 -126 -24 -128
-1 -2 -19 5 -39 14 l-36 18 0 201 0 201 -67 37 c-37 21 -77 40 -90 43 l-23 6
0 -279z"/>
<path d="M3243 6493 l-91 -4 -4 -247 c-3 -221 -5 -250 -22 -274 -23 -35 -43
-35 -85 0 l-34 28 21 64 c26 76 26 78 6 82 -9 2 -35 51 -65 123 -27 65 -53
123 -59 129 -7 7 -19 1 -37 -16 -16 -14 -39 -33 -53 -41 l-25 -16 5 -217 5
-218 92 -65 92 -66 0 -246 c1 -135 4 -267 7 -293 l7 -46 67 0 68 0 7 293 7
293 57 39 c31 22 75 57 99 79 l42 39 0 293 c0 162 -3 293 -7 292 -5 -1 -49 -4
-100 -5z"/>
<path d="M3030 4995 l0 -115 54 0 55 0 3 88 c2 48 1 99 -1 115 -3 26 -6 27
-57 27 l-54 0 0 -115z"/>
<path d="M6810 4883 l0 -73 69 0 c38 0 76 -3 85 -6 14 -5 16 5 16 75 l0 81
-85 -2 -85 -2 0 -73z"/>
<path d="M6950 4658 c-41 -22 -206 -106 -366 -188 -160 -82 -353 -183 -429
-225 -76 -42 -148 -81 -161 -85 -16 -6 -38 -38 -68 -98 -46 -92 -52 -98 -167
-180 -36 -26 -83 -62 -104 -80 l-37 -33 25 -37 c13 -20 44 -59 69 -86 l45 -50
49 40 c137 112 192 154 203 154 6 0 11 13 11 30 0 25 13 39 98 103 53 41 162
118 242 172 80 55 187 130 238 167 50 38 92 66 92 62 0 -9 -60 -95 -124 -175
-34 -42 -101 -129 -151 -194 -49 -64 -130 -166 -179 -228 -49 -61 -96 -124
-106 -139 l-17 -29 -38 43 c-20 24 -44 55 -53 71 -9 15 -21 27 -26 27 -14 0
-90 -64 -196 -165 -53 -49 -158 -147 -235 -217 -77 -70 -162 -149 -189 -177
l-50 -51 -34 38 c-31 33 -32 38 -17 47 29 17 234 183 337 272 l98 85 -33 41
c-17 23 -33 44 -34 45 -1 2 -21 -9 -45 -26 -24 -16 -59 -37 -78 -47 -19 -10
-102 -61 -185 -114 -124 -79 -171 -103 -274 -138 -68 -24 -138 -43 -155 -43
-41 0 -74 22 -330 214 -115 86 -209 155 -210 154 -1 -2 -19 -24 -39 -49 -20
-25 -37 -53 -37 -61 0 -12 406 -378 454 -410 7 -5 0 -18 -19 -37 l-30 -30 -55
51 c-30 29 -96 91 -145 138 -84 80 -232 206 -404 345 -41 33 -99 82 -128 109
-30 27 -55 47 -57 45 -2 -2 -15 -24 -29 -49 -15 -25 -39 -58 -56 -74 l-29 -28
-54 69 c-29 37 -96 123 -148 191 -78 101 -290 371 -419 532 -64 80 -64 94 0
33 94 -91 318 -267 494 -388 116 -81 320 -243 453 -362 52 -46 98 -83 102 -83
5 0 31 28 59 63 28 34 63 74 77 90 14 15 20 27 13 27 -7 0 -33 17 -59 39 -25
21 -82 62 -125 89 -155 99 -152 96 -196 186 -40 81 -43 85 -106 116 -35 18
-158 89 -271 158 -369 222 -420 252 -514 297 -50 25 -95 51 -100 58 -6 9 -8 9
-8 -2 0 -9 -12 -12 -46 -9 l-45 3 5 -35 c10 -59 173 -371 282 -540 113 -176
294 -441 387 -565 112 -150 144 -175 224 -175 54 0 159 25 180 42 10 8 40 -15
131 -103 64 -63 151 -143 192 -178 126 -109 240 -215 240 -225 0 -5 -40 -50
-88 -100 -49 -51 -98 -113 -112 -140 -22 -46 -23 -53 -11 -110 17 -79 34 -107
101 -161 30 -25 89 -77 130 -116 86 -81 119 -101 166 -101 43 0 78 25 201 145
l101 99 54 -48 c29 -27 87 -81 129 -121 108 -103 126 -101 249 30 91 97 172
158 207 155 47 -3 91 27 103 71 16 61 15 113 -5 151 -10 19 -83 99 -161 176
-79 78 -144 148 -144 155 0 8 13 22 28 31 15 9 118 104 229 211 110 107 211
198 223 202 15 5 31 1 49 -12 44 -33 83 -50 144 -63 104 -21 78 -47 359 370
330 491 471 729 531 896 23 65 25 86 8 83 -3 0 -40 -19 -81 -41z m-1852 -1682
c36 -34 62 -68 59 -73 -4 -6 -38 -38 -76 -72 l-70 -62 -68 65 -68 65 70 70
c39 39 74 71 79 71 4 0 38 -29 74 -64z m356 -328 l68 -63 -76 -77 c-42 -43
-80 -78 -85 -78 -5 0 -48 37 -96 82 l-86 81 77 78 77 78 27 -19 c15 -10 57
-47 94 -82z m-651 11 l88 -82 -38 -39 c-21 -22 -60 -58 -86 -80 l-48 -40 -38
26 c-21 15 -62 51 -90 80 l-51 54 83 81 c45 44 84 81 87 81 3 0 45 -37 93 -81z"/>
</g>
</svg>
